<?xml version="1.0" standalone="no"?>
<!DOCTYPE svg PUBLIC "-//W3C//DTD SVG 20010904//EN"
 "http://www.w3.org/TR/2001/REC-SVG-20010904/DTD/svg10.dtd">
<svg version="1.0" xmlns="http://www.w3.org/2000/svg"
 width="261.000000pt" height="261.000000pt" viewBox="0 0 261.000000 261.000000"
 preserveAspectRatio="xMidYMid meet">
<metadata>
Created by potrace 1.14, written by Peter Selinger 2001-2017
</metadata>
<g transform="translate(0.000000,261.000000) scale(0.100000,-0.100000)"
fill="#000000" stroke="none">
<path d="M1254 2588 c-5 -7 -2 -8 7 -3 11 6 11 5 3 -5 -7 -6 -23 -13 -37 -13
-14 -1 -24 -4 -22 -7 2 -3 -4 -12 -13 -20 -9 -8 -17 -14 -17 -12 0 2 -8 0 -17
-3 -10 -4 -15 -12 -11 -19 3 -6 3 -8 -1 -4 -11 10 -66 -12 -63 -25 1 -7 -5
-11 -13 -9 -8 2 -20 -5 -27 -14 -12 -17 -13 -17 -14 2 0 17 -1 16 -9 -3 -8
-20 -31 -29 -62 -24 -4 0 -5 -6 -2 -14 4 -8 1 -15 -5 -15 -6 0 -13 0 -16 0 -3
0 -14 -9 -25 -20 -11 -11 -31 -20 -45 -20 -17 0 -23 -4 -19 -14 4 -9 -6 -16
-30 -20 -20 -4 -36 -13 -36 -20 0 -8 -6 -13 -12 -12 -7 0 -14 -3 -15 -8 -2
-14 -26 -26 -52 -26 -15 0 -21 -5 -18 -13 4 -12 -6 -16 -50 -19 -7 -1 -13 -7
-13 -15 0 -7 -4 -14 -10 -14 -5 -1 -14 -3 -20 -4 -5 -1 -17 -3 -26 -4 -8 0
-12 -6 -9 -11 4 -6 12 -7 18 -4 7 4 8 3 4 -2 -9 -10 -14 -11 -52 -13 -16 -1
-23 -5 -19 -15 4 -10 -5 -16 -28 -21 -44 -10 -53 -16 -37 -27 11 -7 9 -9 -6
-7 -40 3 -55 -1 -55 -16 0 -8 -9 -15 -20 -15 -12 0 -20 -7 -20 -17 0 -14 -2
-15 -9 -5 -6 11 -10 10 -15 -3 -3 -9 -12 -15 -20 -12 -9 3 -16 -3 -19 -15 -4
-13 -11 -19 -21 -15 -8 3 -18 2 -21 -4 -4 -5 -11 -7 -16 -4 -5 4 -9 -1 -9 -9
0 -9 -7 -16 -15 -16 -8 0 -16 -3 -16 -7 -1 -5 -2 -302 -3 -660 -1 -617 0 -653
16 -653 10 0 18 -6 18 -14 0 -8 15 -17 35 -20 19 -4 34 -12 32 -18 -1 -6 8
-12 21 -13 17 -1 21 2 17 14 -4 12 -2 12 9 -2 12 -16 14 -16 14 8 0 13 -4 22
-9 20 -4 -3 -11 -1 -14 5 -4 6 -1 9 6 8 7 -2 15 5 17 14 2 10 -2 18 -8 18 -6
0 -8 -5 -4 -12 4 -7 3 -8 -5 -4 -9 6 -9 11 1 23 10 13 13 135 14 587 1 323 -2
579 -7 588 -7 13 -6 16 4 12 8 -3 20 3 28 13 13 16 12 17 -3 4 -10 -7 -18 -9
-18 -3 0 12 24 22 51 22 11 0 19 7 19 16 0 9 6 14 13 11 6 -2 17 5 24 17 11
20 12 20 13 2 0 -20 15 -13 15 7 0 7 8 12 17 12 10 0 17 4 17 9 -1 14 23 26
53 26 20 0 26 4 22 15 -4 10 0 15 14 15 12 0 24 5 27 10 4 6 11 8 16 5 5 -4 9
1 9 9 0 10 9 16 21 16 16 0 20 4 15 18 -5 14 -4 14 9 -2 13 -17 15 -18 15 -3
0 10 8 17 20 17 11 0 20 6 20 14 0 8 7 17 16 20 15 6 15 4 3 -11 -11 -14 -9
-14 11 2 14 11 29 26 33 33 4 6 18 12 30 12 25 0 49 13 48 25 -1 8 17 15 47
17 6 1 12 6 12 11 0 5 -7 6 -16 3 -8 -3 -12 -2 -9 4 3 6 21 10 40 10 19 0 37
4 40 10 3 6 -2 8 -12 5 -10 -3 -6 1 10 8 15 7 24 17 20 22 -5 5 0 3 10 -4 17
-13 18 -13 21 12 1 12 5 13 47 16 11 0 17 6 14 11 -4 6 -12 7 -18 4 -7 -4 -8
-3 -4 1 8 9 26 14 64 18 17 2 19 5 10 17 -6 8 -7 12 -3 8 5 -4 15 -3 23 3 7 6
13 8 13 4 0 -4 7 -2 15 5 8 7 12 16 9 21 -3 5 -2 9 3 8 28 -5 53 2 47 14 -6
10 -4 10 7 0 18 -17 34 -17 20 0 -8 10 -7 14 4 14 7 0 14 -3 13 -6 -2 -21 4
-28 21 -24 13 3 21 -2 26 -17 6 -18 9 -20 16 -9 6 10 9 11 9 2 0 -7 6 -13 14
-13 8 0 16 -6 19 -14 3 -7 19 -16 37 -19 17 -4 29 -11 25 -17 -3 -6 3 -10 15
-10 13 0 24 -8 27 -20 3 -11 10 -20 15 -20 5 0 7 4 3 9 -3 5 -1 13 5 16 6 4 9
1 8 -7 -2 -7 7 -14 19 -16 14 -2 20 -8 16 -18 -3 -9 1 -14 13 -14 9 0 25 -7
34 -15 9 -8 28 -16 42 -17 16 -1 25 -8 24 -17 -1 -10 11 -18 32 -21 18 -3 34
-9 35 -15 1 -5 5 -9 10 -7 4 1 7 -2 7 -8 0 -6 3 -9 8 -9 20 3 32 -3 32 -16 0
-10 7 -15 18 -13 10 2 16 -2 14 -10 -2 -10 2 -10 18 -2 16 9 18 8 14 -5 -4
-10 0 -15 11 -15 10 0 23 -7 29 -16 7 -9 24 -17 38 -17 15 -1 26 -4 26 -7 -1
-18 4 -27 15 -28 33 -3 50 -10 58 -25 5 -9 16 -14 24 -11 10 4 15 0 16 -12 0
-12 3 -14 6 -6 4 10 8 9 17 -3 6 -9 21 -17 33 -18 18 -1 20 -4 10 -16 -10 -12
-9 -14 6 -8 9 3 17 3 17 -2 0 -5 8 -8 17 -7 10 0 18 -6 18 -14 0 -9 8 -14 18
-12 20 3 24 -33 5 -41 -10 -4 -10 -6 0 -6 6 -1 12 -5 12 -11 0 -5 -6 -8 -12
-6 -7 1 -10 1 -5 -1 4 -3 4 -10 1 -15 -4 -7 -2 -8 4 -4 7 4 12 1 12 -9 0 -12
-5 -15 -17 -11 -16 5 -16 5 -2 -6 16 -14 24 -102 8 -92 -5 3 -9 0 -9 -5 0 -6
4 -11 8 -11 4 0 9 -11 10 -25 1 -15 -3 -23 -11 -21 -6 1 -9 1 -4 -1 4 -3 4
-10 1 -15 -4 -7 -2 -8 4 -4 7 4 12 1 12 -9 0 -12 -5 -15 -17 -11 -16 5 -16 4
-3 -6 20 -17 27 -79 8 -75 -7 2 -10 2 -5 0 4 -3 4 -10 1 -15 -4 -7 -2 -8 4 -4
7 4 12 1 12 -9 0 -12 -5 -15 -17 -11 -16 5 -16 5 -2 -6 16 -14 24 -102 8 -92
-5 3 -9 0 -9 -5 0 -6 4 -11 8 -11 4 0 9 -11 10 -25 1 -15 -3 -23 -11 -21 -6 1
-9 1 -4 -1 4 -3 4 -10 1 -15 -4 -7 -2 -8 4 -4 7 4 12 1 12 -9 0 -12 -5 -15
-17 -11 -16 5 -16 4 -3 -6 20 -17 27 -79 8 -75 -7 2 -10 2 -5 0 4 -3 4 -10 1
-15 -4 -7 -2 -8 4 -4 7 4 12 1 12 -9 0 -12 -5 -15 -17 -11 -16 5 -16 5 -2 -6
16 -14 24 -102 8 -92 -5 3 -9 0 -9 -5 0 -6 4 -11 8 -11 4 0 9 -11 10 -25 1
-15 -3 -23 -11 -21 -6 1 -9 1 -4 -1 4 -3 4 -10 1 -15 -4 -7 -2 -8 4 -4 7 4 12
1 12 -9 0 -12 -5 -15 -17 -11 -16 5 -16 4 -3 -6 20 -17 27 -79 8 -75 -7 2 -10
2 -5 0 4 -3 4 -10 1 -15 -4 -7 -2 -8 4 -4 7 4 12 1 12 -9 0 -12 -5 -15 -17
-11 -17 6 -17 5 0 -8 24 -19 21 -34 -8 -48 -19 -8 -22 -14 -13 -20 9 -5 7 -8
-7 -9 -11 -1 -23 -1 -27 0 -5 0 -8 -7 -8 -16 0 -14 -2 -15 -9 -5 -6 11 -10 10
-15 -3 -3 -10 -12 -15 -21 -11 -8 3 -15 1 -15 -5 0 -6 -6 -7 -12 -3 -8 5 -8 2
1 -10 8 -9 10 -16 5 -15 -32 6 -63 -2 -58 -15 3 -8 0 -17 -7 -22 -8 -4 -10 -3
-5 4 4 7 3 12 -2 12 -18 0 -21 -28 -4 -42 11 -9 14 -10 8 -1 -4 7 -2 13 3 13
6 0 11 -4 11 -10 0 -5 7 -10 15 -10 8 0 15 -6 15 -14 0 -14 6 -16 56 -17 17 0
21 -5 18 -22 -2 -12 -2 -16 2 -9 3 6 10 10 15 6 5 -3 9 2 9 12 0 11 6 15 19
11 22 -5 54 11 46 24 -4 5 0 10 7 10 7 1 18 2 23 4 6 1 16 3 23 3 6 1 12 7 12
13 0 8 -6 7 -17 -2 -16 -13 -17 -12 -4 4 8 10 20 16 28 13 7 -3 21 3 30 14 10
11 24 20 32 20 8 0 11 3 8 7 -4 3 1 12 11 20 9 8 12 12 6 9 -8 -4 -13 8 -16
34 -2 22 0 40 5 40 4 0 5 5 1 11 -9 15 -11 149 -2 149 4 0 3 14 -2 30 -5 17
-5 30 -1 30 4 0 5 23 1 50 -4 28 -2 50 2 50 5 0 6 5 2 11 -9 15 -11 149 -2
149 4 0 3 14 -2 30 -5 17 -5 30 -1 30 4 0 5 23 1 50 -4 28 -2 50 2 50 5 0 6 5
2 11 -9 15 -11 149 -2 149 4 0 3 14 -2 30 -5 17 -5 30 -1 30 4 0 5 23 1 50 -4
28 -2 50 2 50 5 0 6 5 2 11 -10 16 -11 149 -1 149 5 0 5 5 2 11 -4 6 -7 26 -7
45 0 27 -4 34 -19 34 -10 0 -19 7 -19 15 0 14 -20 20 -60 17 -11 0 -10 3 4 14
19 13 18 14 -11 14 -23 0 -33 6 -38 20 -3 11 -9 19 -13 19 -4 -1 -20 -1 -37 0
-20 1 -26 4 -17 9 9 6 5 12 -13 20 -14 7 -33 12 -42 12 -10 0 -13 6 -9 16 3 8
2 12 -4 9 -12 -7 -46 10 -42 22 1 4 -14 9 -33 11 -22 2 -40 11 -48 23 -6 10
-20 19 -29 19 -10 0 -18 5 -18 11 0 5 5 7 12 3 7 -4 8 -3 4 4 -4 7 -21 12 -37
12 -16 0 -32 6 -35 14 -5 13 -49 31 -67 27 -5 -1 -6 3 -2 9 3 6 11 7 17 4 7
-4 8 -2 4 5 -4 7 -15 11 -24 10 -31 -3 -42 1 -40 13 3 12 -3 14 -42 17 -11 0
-20 8 -20 16 0 8 -14 17 -35 21 -19 3 -32 10 -29 15 3 5 11 6 17 3 7 -4 9 -3
4 1 -4 5 -17 10 -28 12 -11 2 -27 10 -35 18 -15 15 -28 19 -51 16 -7 -1 -13 7
-13 17 0 11 -6 20 -12 19 -39 -1 -58 5 -58 18 0 8 -7 16 -15 16 -28 3 -31 4
-49 22 -10 9 -21 15 -26 12 -4 -3 -11 5 -15 18 -6 20 -8 20 -12 4 -5 -18 -6
-18 -20 2 -8 12 -18 19 -23 16 -5 -3 -12 0 -16 6 -5 8 -3 9 6 4 9 -5 11 -4 6
3 -4 7 -20 12 -36 12 -16 0 -32 -5 -36 -12z m-264 -172 c0 -3 -4 -8 -10 -11
-5 -3 -10 -1 -10 4 0 6 5 11 10 11 6 0 10 -2 10 -4z m670 -196 c0 -5 -2 -10
-4 -10 -3 0 -8 5 -11 10 -3 6 -1 10 4 10 6 0 11 -4 11 -10z m430 -74 c0 -3 -4
-8 -10 -11 -5 -3 -10 -1 -10 4 0 6 5 11 10 11 6 0 10 -2 10 -4z m-1680 -70 c0
-3 -4 -8 -10 -11 -5 -3 -10 -1 -10 4 0 6 5 11 10 11 6 0 10 -2 10 -4z m-85
-245 c3 -5 2 -12 -3 -15 -5 -3 -9 1 -9 9 0 17 3 19 12 6z m5 -40 c0 -6 -4 -12
-8 -15 -5 -3 -9 1 -9 9 0 8 4 15 9 15 4 0 8 -4 8 -9z m-5 -40 c3 -5 2 -12 -3
-15 -5 -3 -9 1 -9 9 0 17 3 19 12 6z m5 -40 c0 -6 -4 -12 -8 -15 -5 -3 -9 1
-9 9 0 8 4 15 9 15 4 0 8 -4 8 -9z m-7 -56 c-7 -21 -12 -19 -10 4 0 11 5 18 9
15 4 -3 5 -11 1 -19z m3 -59 c-1 -19 -3 -37 -6 -40 -4 -4 -5 60 -1 72 4 11 8
-4 7 -32z m0 -120 c-1 -19 -3 -37 -6 -40 -4 -4 -5 60 -1 72 4 11 8 -4 7 -32z
m0 -120 c-1 -19 -3 -37 -6 -40 -4 -4 -5 60 -1 72 4 11 8 -4 7 -32z m0 -120
c-1 -19 -3 -37 -6 -40 -4 -4 -5 60 -1 72 4 11 8 -4 7 -32z m0 -120 c-1 -19 -3
-37 -6 -40 -4 -4 -5 60 -1 72 4 11 8 -4 7 -32z m4 -125 c0 -6 -4 -12 -8 -15
-5 -3 -9 1 -9 9 0 8 4 15 9 15 4 0 8 -4 8 -9z m-5 -40 c3 -5 2 -12 -3 -15 -5
-3 -9 1 -9 9 0 17 3 19 12 6z m5 -40 c0 -6 -4 -12 -8 -15 -5 -3 -9 1 -9 9 0 8
4 15 9 15 4 0 8 -4 8 -9z m-5 -40 c3 -5 2 -12 -3 -15 -5 -3 -9 1 -9 9 0 17 3
19 12 6z m5 -40 c0 -6 -4 -12 -8 -15 -5 -3 -9 1 -9 9 0 8 4 15 9 15 4 0 8 -4
8 -9z m-5 -40 c3 -5 2 -12 -3 -15 -5 -3 -9 1 -9 9 0 17 3 19 12 6z m5 -40 c0
-6 -4 -12 -8 -15 -5 -3 -9 1 -9 9 0 8 4 15 9 15 4 0 8 -4 8 -9z m-7 -56 c-7
-21 -12 -19 -10 4 0 11 5 18 9 15 4 -3 5 -11 1 -19z"/>
<path d="M1250 2244 c0 -8 -4 -13 -9 -9 -5 3 -12 1 -16 -5 -4 -6 -11 -8 -16
-4 -6 3 -13 -3 -16 -14 -3 -12 -11 -18 -18 -16 -7 3 -16 1 -19 -5 -4 -6 -13
-8 -21 -4 -11 4 -13 1 -9 -11 5 -12 0 -16 -22 -17 -16 -1 -33 -1 -39 0 -5 1
-2 -5 8 -12 23 -19 22 -30 -2 -17 -14 7 -22 7 -26 0 -4 -6 -11 -8 -16 -5 -8 6
-13 -8 -10 -28 1 -4 -4 -7 -11 -6 -34 4 -58 -2 -58 -16 0 -8 -8 -15 -17 -15
-10 0 -25 -5 -33 -11 -13 -9 -12 -10 3 -5 10 3 16 2 13 -3 -5 -8 -64 -25 -78
-22 -13 2 -9 -17 5 -23 8 -4 7 -5 -3 -5 -8 1 -26 1 -40 0 -19 -1 -21 -4 -11
-10 11 -7 4 -12 -24 -20 -20 -5 -45 -17 -55 -26 -10 -9 -27 -17 -38 -18 -11 0
-18 -5 -16 -9 3 -5 10 -6 15 -3 5 4 9 1 9 -5 0 -6 -6 -10 -12 -9 -31 4 -59 -2
-53 -11 3 -6 -2 -13 -12 -17 -10 -4 -21 -11 -25 -17 -5 -7 -8 -6 -8 4 -1 11
-4 10 -16 -5 -8 -11 -19 -21 -24 -21 -6 -1 -15 -2 -21 -3 -6 0 -8 -9 -5 -18 5
-15 3 -14 -10 2 l-16 20 4 -20 c2 -15 -2 -20 -17 -18 -17 1 -18 0 -5 -10 13
-10 16 -38 15 -162 0 -82 -4 -156 -9 -164 -6 -9 -5 -12 0 -8 13 7 12 -93 0
-112 -6 -9 -5 -12 0 -8 6 3 10 -22 10 -58 0 -39 -4 -62 -9 -58 -6 4 -7 1 -1
-8 5 -8 9 -72 10 -144 0 -106 -3 -132 -15 -143 -14 -12 -14 -13 2 -8 9 3 17 3
17 -1 0 -3 -8 -12 -17 -19 -14 -11 -14 -13 -3 -9 14 5 16 -9 15 -102 0 -59 -4
-114 -9 -122 -6 -9 -5 -12 0 -8 6 3 10 -21 9 -61 0 -47 -4 -66 -13 -64 -7 1
-12 -3 -12 -9 0 -6 7 -8 16 -5 13 5 15 2 11 -14 -5 -19 5 -24 50 -23 6 0 9 -5
7 -12 -6 -14 22 -28 37 -19 5 3 9 -4 9 -15 0 -13 5 -19 14 -15 8 3 17 0 21 -6
6 -9 10 -9 16 1 7 11 10 9 15 -8 4 -13 14 -23 24 -23 10 0 25 -7 34 -15 8 -8
22 -15 30 -15 9 0 16 -8 16 -20 0 -11 5 -20 11 -20 5 0 8 4 4 9 -3 5 -1 13 5
16 6 4 9 1 8 -7 -2 -7 7 -14 20 -16 17 -3 20 -7 13 -16 -7 -8 -4 -12 11 -13
11 -1 26 -10 34 -20 7 -10 14 -15 14 -11 0 4 11 3 24 -2 l24 -9 0 142 c0 203
-1 197 20 196 10 0 12 -3 5 -6 -22 -8 -14 -19 14 -21 15 -1 32 -7 38 -14 7 -8
6 -9 -5 -3 -12 6 -13 5 -3 -5 7 -7 23 -14 35 -16 13 -1 26 -3 30 -3 4 -1 5 -7
2 -14 -4 -12 7 -15 54 -19 7 -1 11 -7 8 -15 -4 -8 3 -13 19 -14 46 -3 50 -4
47 -22 -2 -11 4 -17 17 -17 11 0 21 -5 23 -12 4 -10 23 -17 56 -20 6 -1 12 -9
12 -19 0 -13 6 -16 22 -11 18 4 20 2 15 -14 -7 -18 -6 -18 7 -1 14 18 14 18
21 -2 3 -12 13 -21 21 -21 8 0 14 -4 14 -9 0 -10 36 -26 70 -30 6 0 9 -6 8
-13 -3 -12 3 -14 42 -17 13 -1 17 -6 14 -16 -6 -15 -2 -16 66 -19 8 0 31 3 50
7 27 6 32 10 20 17 -12 8 -11 10 7 10 12 0 24 4 28 10 3 5 12 7 21 3 9 -3 14
0 12 8 -2 8 7 15 20 17 12 2 20 8 17 13 -4 5 2 12 12 16 10 4 21 11 25 17 5 7
8 7 8 -1 0 -7 5 -13 10 -13 6 0 10 7 10 16 0 10 5 14 16 10 8 -3 12 -2 9 4 -3
6 5 10 19 10 14 0 26 5 26 11 0 5 -4 8 -9 4 -5 -3 -12 -2 -15 3 -2 4 5 9 17
10 41 4 56 8 64 17 4 4 2 5 -4 1 -7 -4 -13 -3 -13 3 0 5 15 11 33 13 25 2 31
7 29 22 -2 11 4 26 15 34 16 13 16 14 1 9 -10 -4 -18 -2 -18 3 0 5 -7 7 -15 4
-21 -8 -41 6 -24 17 13 8 -8 13 -48 12 -7 -1 -13 8 -13 18 0 10 -5 19 -11 19
-5 0 -7 -6 -3 -12 6 -10 4 -10 -7 0 -7 6 -21 12 -32 12 -10 0 -16 4 -12 9 7
12 -7 21 -38 23 -16 1 -23 7 -20 15 3 7 8 11 12 8 4 -2 8 2 8 10 0 13 -2 13
-17 0 -14 -13 -16 -12 -16 10 0 20 5 25 26 26 14 1 28 1 33 0 4 0 7 8 7 19 0
12 6 20 13 19 6 -1 21 -1 32 0 15 1 17 3 7 10 -10 6 -6 10 14 15 15 4 34 15
41 24 10 14 12 14 13 2 0 -9 6 -5 15 10 9 15 15 19 15 10 0 -12 4 -11 15 4 8
11 22 21 31 22 30 5 45 14 39 24 -3 5 3 10 14 10 12 0 21 7 21 15 0 8 5 15 11
15 5 0 7 -6 3 -12 -4 -7 -3 -10 1 -5 14 12 13 48 0 43 -7 -2 -12 4 -11 17 1
12 7 21 14 19 14 -3 12 29 -2 40 -11 7 -15 77 -6 83 4 2 6 -14 6 -35 -1 -22 2
-40 6 -40 13 0 4 105 -11 116 -11 9 -12 12 -1 19 8 5 11 4 7 -2 -3 -5 0 -10 8
-10 10 0 12 4 5 12 -5 7 -6 16 -2 20 4 5 0 6 -9 2 -12 -4 -16 0 -15 16 1 12 7
21 13 20 7 -2 11 8 9 25 -1 16 -8 26 -15 24 -7 -1 -10 2 -6 8 3 6 11 8 16 5 5
-4 9 -2 9 4 0 5 -5 11 -12 13 -14 5 -20 38 -6 38 6 0 8 -7 4 -15 -3 -8 -1 -15
5 -15 6 0 9 10 7 23 -2 12 -9 21 -16 19 -8 -1 -11 2 -7 8 3 6 11 8 16 5 5 -4
9 -2 9 4 0 5 -5 11 -12 13 -14 5 -20 38 -6 38 6 0 8 -7 4 -15 -3 -8 -1 -15 5
-15 6 0 9 10 7 23 -2 12 -9 21 -16 19 -8 -1 -11 2 -7 8 3 6 11 8 16 5 5 -4 9
-2 9 4 0 5 -5 11 -12 13 -14 5 -20 38 -6 38 6 0 8 -7 4 -15 -3 -8 -1 -15 5
-15 6 0 9 10 7 23 -2 12 -9 21 -16 19 -8 -1 -11 2 -7 8 3 6 11 8 16 5 16 -11
10 7 -8 20 -13 9 -13 14 -3 20 9 5 11 4 6 -3 -4 -7 -3 -12 3 -12 5 0 9 9 8 20
-1 11 -6 19 -13 16 -6 -2 -11 5 -10 17 1 12 7 21 14 19 14 -3 12 29 -2 40 -11
7 -15 77 -6 83 4 2 6 -14 6 -35 -1 -22 2 -40 6 -40 10 0 5 104 -6 112 -15 11
-16 58 -1 58 8 0 17 5 21 12 5 7 0 9 -14 6 -12 -3 -21 -3 -20 1 3 26 -5 41
-22 41 -11 0 -20 6 -20 13 0 9 -3 8 -9 -2 -6 -9 -11 -10 -15 -2 -4 6 -5 15 -2
20 3 4 -2 8 -12 8 -47 0 -63 4 -57 14 4 6 14 8 24 4 11 -4 13 -3 6 4 -6 6 -29
11 -51 13 -28 2 -40 7 -37 16 5 11 -8 16 -34 13 -7 -1 -10 7 -8 19 3 16 0 20
-14 15 -10 -3 -27 3 -41 15 -22 19 -39 24 -70 20 -11 -1 -9 3 5 15 11 9 16 15
10 12 -5 -2 -28 2 -50 9 -22 7 -32 13 -22 13 30 2 8 21 -24 21 -20 0 -29 5
-29 16 0 9 -6 14 -12 11 -7 -2 -19 3 -26 12 -8 9 -10 10 -6 2 4 -9 2 -12 -7
-9 -8 3 -14 11 -14 18 0 12 -17 19 -52 22 -7 1 -10 5 -7 10 3 5 11 5 17 2 7
-4 8 -3 4 2 -9 9 -14 11 -46 13 -11 0 -23 10 -26 22 -4 12 -12 18 -21 15 -20
-8 -44 3 -44 20 0 12 -20 18 -58 17 -10 -1 -10 2 -1 13 9 12 4 14 -35 14 -35
0 -46 -4 -46 -16z m61 -163 c-12 -8 -8 -11 15 -17 16 -4 35 -14 42 -23 11 -14
11 -14 7 4 -5 16 -3 15 6 -3 7 -13 18 -21 26 -18 8 3 18 -4 23 -17 5 -12 9
-16 9 -9 1 10 5 10 17 -2 8 -9 20 -14 25 -11 5 4 9 -1 9 -9 0 -14 31 -22 62
-17 5 0 7 -2 7 -7 -3 -19 2 -29 16 -30 8 -1 22 -3 30 -4 8 -1 12 -5 9 -10 -3
-5 -11 -5 -17 -2 -7 4 -9 3 -4 -1 4 -5 18 -10 30 -12 12 -2 27 -10 33 -18 6
-8 19 -15 28 -15 9 0 16 -4 16 -10 0 -5 8 -6 17 -3 13 5 15 2 10 -11 -6 -15
-3 -17 13 -13 18 5 24 -3 22 -24 -1 -4 7 -6 16 -6 41 0 50 -4 56 -25 5 -19 8
-21 16 -8 7 11 10 11 10 2 0 -7 8 -12 17 -10 10 2 18 -3 18 -12 0 -8 10 -16
23 -18 14 -2 20 -8 16 -15 -5 -8 -2 -8 7 1 18 17 34 15 20 -2 -7 -8 -8 -16 -4
-19 6 -4 10 -706 4 -764 0 -7 -12 -13 -26 -13 -14 0 -29 -8 -35 -20 -6 -11
-16 -18 -21 -14 -6 3 -13 -4 -16 -15 -4 -17 -8 -19 -19 -10 -10 8 -14 8 -14 0
0 -6 -10 -11 -22 -11 -19 0 -20 -2 -8 -10 8 -5 13 -10 10 -11 -3 0 -13 -2 -22
-5 -10 -2 -26 -6 -35 -7 -9 -2 -19 -11 -22 -19 -3 -8 -14 -14 -24 -12 -9 1
-23 -6 -30 -16 -7 -10 -21 -20 -32 -22 -11 -2 -19 -10 -18 -16 2 -8 -12 -12
-38 -12 -30 0 -40 4 -36 13 3 9 -6 14 -26 15 -38 3 -39 5 -39 37 0 22 -2 23
-12 10 -10 -15 -12 -14 -12 3 0 19 4 20 52 23 18 1 22 4 13 10 -11 6 -10 9 3
14 15 6 42 12 60 14 4 1 5 8 1 17 -5 13 -2 15 15 9 17 -5 22 -2 22 12 0 15 2
16 10 3 8 -13 10 -12 10 3 0 11 8 17 24 17 14 0 28 5 32 12 5 7 2 8 -7 3 -8
-5 -11 -4 -6 1 4 4 22 13 40 19 18 6 31 16 30 23 -2 7 0 11 5 11 26 -4 44 3
39 15 -4 10 -1 13 9 9 12 -4 14 38 14 306 0 307 0 311 -21 311 -11 0 -18 4
-15 9 8 13 -16 29 -41 26 -12 -1 -22 1 -21 4 3 26 -1 29 -53 33 -19 2 -19 3
-3 15 16 12 15 13 -13 13 -17 0 -33 6 -36 14 -3 8 -19 17 -36 21 -17 4 -31 13
-31 21 0 8 -9 14 -20 14 -12 0 -20 7 -21 18 -1 16 -2 16 -6 0 -2 -10 -8 -18
-13 -18 -5 0 -7 7 -4 15 6 13 -6 20 -28 16 -7 -1 -12 13 -10 30 1 3 -5 6 -13
6 -8 0 -11 -5 -8 -11 4 -6 -3 -3 -14 7 -11 9 -23 14 -26 10 -4 -3 -7 1 -7 10
0 12 -9 17 -30 17 -20 0 -30 5 -30 15 0 24 -59 23 -73 -1 -4 -8 -21 -14 -36
-14 -20 0 -30 -6 -34 -20 -3 -13 -11 -18 -26 -15 -19 3 -21 1 -15 -18 6 -22 6
-22 -11 -2 -9 11 -14 14 -10 7 4 -8 -5 -16 -25 -24 -23 -8 -28 -13 -18 -19 8
-6 0 -9 -24 -9 -31 0 -38 -4 -38 -19 0 -14 -5 -18 -20 -14 -15 4 -20 0 -21
-13 0 -11 -3 -14 -6 -6 -2 6 -9 12 -14 12 -6 0 -8 -4 -4 -9 7 -12 -4 -19 -39
-25 -16 -3 -31 -8 -35 -12 -3 -4 2 -4 11 -1 10 3 20 3 22 -2 5 -7 -8 -11 -46
-12 -11 0 -18 -8 -18 -18 0 -11 -7 -18 -17 -18 -39 0 -53 -3 -53 -13 0 -5 8
-7 18 -4 14 5 15 4 2 -5 -8 -6 -23 -11 -32 -11 -21 0 -23 -11 -5 -29 9 -11 9
-13 0 -7 -9 5 -13 0 -13 -14 0 -13 4 -19 12 -14 7 5 8 3 2 -7 -12 -19 -15
-101 -3 -93 5 3 9 0 9 -5 0 -6 -4 -11 -10 -11 -14 0 -13 -37 1 -46 8 -4 9 1 5
17 -6 20 -5 21 4 6 12 -19 4 -41 -11 -32 -5 4 -9 -3 -9 -13 0 -11 8 -23 18
-27 16 -6 16 -7 0 -19 -19 -14 -23 -80 -4 -69 6 3 5 0 -1 -8 -15 -16 -17 -43
-3 -34 6 3 10 1 10 -4 0 -6 -4 -11 -10 -11 -5 0 -10 -12 -10 -26 0 -16 4 -23
12 -18 7 5 8 3 2 -7 -13 -21 -15 -81 -2 -73 7 5 8 2 2 -7 -12 -19 -15 -101 -3
-93 5 3 9 0 9 -5 0 -6 -4 -11 -10 -11 -14 0 -13 -37 1 -46 8 -4 9 1 5 17 -6
20 -5 21 4 6 12 -19 4 -41 -11 -32 -5 4 -9 -3 -9 -13 0 -11 8 -23 18 -27 16
-6 16 -7 0 -19 -19 -14 -23 -80 -4 -69 6 3 5 0 -1 -8 -15 -16 -17 -43 -3 -34
6 3 10 1 10 -4 0 -6 -4 -11 -10 -11 -14 0 -13 -37 1 -46 8 -4 9 1 5 17 -6 20
-5 21 4 6 12 -19 4 -41 -11 -32 -17 11 -9 -28 8 -41 17 -12 17 -13 1 -19 -10
-4 -18 -17 -17 -29 0 -20 1 -20 9 -1 5 11 9 14 9 7 1 -7 -6 -24 -15 -37 -15
-23 -15 -25 2 -25 9 0 15 -3 11 -6 -10 -10 -58 5 -52 16 5 9 -32 15 -58 11 -5
-1 -6 2 -3 7 3 5 -2 18 -10 28 -9 10 -13 13 -9 7 4 -8 1 -11 -7 -8 -10 4 -13
30 -13 95 0 50 4 90 8 90 5 0 5 5 1 11 -10 17 -12 109 -1 109 4 0 5 5 1 11
-10 17 -12 109 -1 109 4 0 5 5 1 11 -10 17 -12 109 -1 109 4 0 5 5 1 11 -10
17 -12 109 -1 109 4 0 5 5 1 11 -10 17 -12 109 -1 109 4 0 5 5 1 11 -10 17
-12 109 -1 109 4 0 5 5 1 11 -11 18 -11 109 -1 109 6 0 6 5 0 13 -14 19 -6 67
14 83 17 13 17 14 1 8 -10 -3 -18 -2 -18 3 0 5 12 10 26 11 32 2 46 11 39 22
-3 5 10 12 30 16 20 3 35 12 35 20 0 8 7 15 15 15 8 1 20 3 25 4 6 1 15 3 21
4 5 0 7 6 4 11 -3 6 1 10 9 10 9 0 25 9 37 21 12 12 29 19 40 16 14 -4 19 0
19 14 0 10 3 18 8 18 4 -1 20 -1 36 0 21 1 27 5 22 16 -3 10 1 15 11 15 9 0
22 8 30 18 8 9 12 11 8 5 -4 -9 -1 -11 9 -7 9 3 13 10 10 15 -5 8 27 14 50 10
5 -1 3 5 -4 14 -12 14 -12 16 1 14 7 -2 27 0 43 5 23 6 27 9 15 17 -11 7 -10
9 6 10 11 1 24 1 29 0 5 -1 6 6 2 16 -5 16 -4 15 9 -1 15 -19 15 -19 15 2 0
20 19 29 53 23 4 -1 10 6 13 14 4 8 14 15 23 15 13 0 14 -2 2 -9z m479 -271
c0 -5 -2 -10 -4 -10 -3 0 -8 5 -11 10 -3 6 -1 10 4 10 6 0 11 -4 11 -10z
m-482 -77 c-6 -8 -7 -13 -2 -12 5 1 21 1 36 0 22 -1 26 -5 21 -18 -6 -16 -5
-16 11 -4 14 12 17 12 14 1 -2 -8 3 -15 10 -16 6 -1 17 -2 22 -3 6 0 10 -8 10
-16 0 -18 20 -20 21 -2 0 10 2 10 6 0 2 -7 11 -13 19 -13 8 0 14 -7 14 -15 0
-8 9 -16 20 -16 41 -3 45 -4 45 -19 0 -9 9 -15 24 -15 13 0 26 -7 28 -15 4
-13 3 -13 -7 0 -10 13 -11 13 -7 0 2 -8 16 -16 31 -17 16 -1 29 -3 30 -5 0 -2
9 -18 19 -37 13 -25 14 -31 3 -22 -12 10 -14 6 -12 -25 2 -20 9 -40 17 -46 11
-8 11 -9 -2 -5 -14 5 -16 -1 -15 -28 2 -19 9 -42 17 -52 13 -16 12 -17 -3 -5
-14 11 -16 9 -14 -24 2 -20 9 -40 17 -46 11 -8 11 -9 -2 -5 -14 5 -16 -1 -15
-28 2 -19 9 -42 17 -52 13 -16 12 -17 -2 -5 -15 11 -17 9 -15 -18 0 -22 5 -29
16 -25 11 4 10 1 -2 -9 -10 -7 -18 -18 -18 -25 0 -6 -7 -11 -15 -11 -8 0 -15
-7 -15 -16 0 -10 -6 -14 -15 -10 -8 3 -15 1 -15 -4 0 -6 -3 -9 -7 -9 -21 3
-33 -2 -33 -16 0 -13 -31 -21 -62 -16 -4 0 -5 -6 -2 -14 4 -10 0 -15 -15 -15
-12 0 -21 -6 -21 -14 0 -8 -15 -17 -35 -20 -21 -4 -35 -13 -35 -21 0 -10 -10
-15 -30 -15 -19 0 -30 -5 -30 -14 0 -19 -19 -24 -55 -15 -16 4 -24 7 -16 8 33
3 -13 23 -51 22 -10 0 -18 5 -18 10 0 6 5 7 10 4 6 -3 10 -1 10 4 0 10 -27 15
-67 14 -7 0 -12 2 -11 6 2 23 -6 31 -32 31 -16 0 -30 5 -30 11 0 5 5 7 10 4 6
-3 10 -1 10 4 0 10 -13 14 -52 14 -11 0 -18 7 -18 18 0 12 -5 16 -14 13 -8 -3
-17 -1 -20 5 -4 6 -14 7 -24 4 -16 -5 -15 -4 1 8 16 13 15 14 -8 15 -15 1 -29
5 -32 8 -4 4 -8 357 -4 429 1 12 5 16 14 11 7 -5 6 0 -3 11 -14 17 -13 18 2
13 9 -4 19 -4 23 0 4 4 12 7 18 7 7 1 11 6 10 12 -1 6 13 14 32 17 21 4 35 13
35 21 0 8 9 15 20 15 18 0 25 11 21 33 -1 5 3 6 9 2 6 -3 8 -10 5 -15 -3 -5 0
-12 6 -16 7 -4 9 -3 6 3 -9 14 19 37 33 28 7 -4 10 0 8 10 -2 10 3 20 10 22 6
3 10 -1 9 -9 -2 -7 -2 -9 1 -5 2 5 15 12 29 18 13 5 21 13 18 19 -3 5 3 10 13
10 11 0 22 6 25 14 3 7 17 14 31 14 22 0 24 -3 14 -15z m-528 -458 c0 -5 -5
-3 -10 5 -5 8 -10 20 -10 25 0 6 5 3 10 -5 5 -8 10 -19 10 -25z m1340 -99 c0
-3 -4 -8 -10 -11 -5 -3 -10 -1 -10 4 0 6 5 11 10 11 6 0 10 -2 10 -4z m-1170
-276 c0 -5 -7 -7 -15 -4 -8 4 -15 8 -15 10 0 2 7 4 15 4 8 0 15 -4 15 -10z
m980 -10 c0 -5 -4 -10 -10 -10 -5 0 -10 5 -10 10 0 6 5 10 10 10 6 0 10 -4 10
-10z m-959 -12 c9 1 22 -9 28 -21 10 -19 11 -19 6 -2 -5 19 -4 19 9 3 7 -10
21 -18 30 -18 9 0 19 -7 22 -15 4 -8 15 -15 25 -15 10 0 19 -4 19 -9 0 -6 12
-16 28 -24 15 -7 26 -19 24 -26 -1 -7 2 -10 8 -6 6 3 8 12 4 18 -3 7 1 4 9 -5
8 -10 20 -18 28 -18 8 0 21 -5 29 -11 12 -9 11 -10 -5 -4 -15 5 -17 3 -8 -6 6
-6 23 -11 37 -11 19 0 26 -6 26 -20 0 -10 5 -16 10 -13 13 8 50 -4 50 -16 0
-6 -5 -7 -12 -3 -6 4 -8 3 -5 -2 3 -5 20 -11 39 -12 18 -1 39 -10 46 -20 7 -9
17 -18 22 -18 6 -1 14 -2 20 -3 5 0 7 -7 4 -14 -3 -8 5 -13 23 -15 16 -1 33
-9 39 -17 6 -8 23 -16 38 -17 14 -1 26 -6 26 -11 0 -5 -7 -6 -16 -3 -8 3 -13
2 -9 -3 3 -5 23 -12 45 -16 22 -4 42 -11 45 -16 4 -5 -2 -6 -12 -3 -15 5 -16
4 -3 -5 8 -6 25 -11 37 -11 25 0 39 -15 23 -25 -5 -3 -10 -15 -10 -26 0 -10
-3 -18 -7 -18 -29 5 -53 -3 -53 -16 0 -13 -10 -16 -49 -14 -36 2 -48 6 -44 16
3 8 -2 13 -13 13 -11 0 -30 9 -44 20 -14 11 -33 20 -44 20 -12 0 -16 5 -12 15
5 14 -15 20 -51 16 -7 -1 -10 7 -8 18 3 14 -1 18 -16 14 -13 -4 -22 2 -28 18
-7 18 -10 19 -10 7 -1 -10 -5 -18 -11 -18 -5 0 -7 7 -4 15 5 11 -1 15 -20 15
-15 0 -25 5 -24 12 2 7 -7 14 -19 16 -16 2 -20 8 -16 20 4 13 2 12 -10 -3 -16
-20 -16 -20 -17 2 0 14 -6 22 -17 22 -39 1 -52 5 -47 13 3 5 11 5 17 2 7 -4 8
-3 4 2 -9 9 -14 11 -47 13 -14 1 -18 6 -13 18 4 11 3 14 -6 9 -6 -4 -18 -2
-26 4 -8 6 -18 9 -23 6 -6 -3 -12 2 -14 12 -3 10 -15 18 -29 19 -13 1 -29 9
-35 18 -6 8 -16 15 -23 15 -6 0 -11 10 -12 23 0 12 -1 46 -2 75 -2 49 0 53 18
47 11 -4 27 -7 36 -7z m-191 -83 c0 -5 -5 -3 -10 5 -5 8 -10 20 -10 25 0 6 5
3 10 -5 5 -8 10 -19 10 -25z m110 -529 c0 -2 -7 -7 -16 -10 -8 -3 -12 -2 -9 4
6 10 25 14 25 6z"/>
<path d="M1533 1935 c0 -8 4 -12 9 -9 5 3 6 10 3 15 -9 13 -12 11 -12 -6z"/>
<path d="M630 729 c0 -5 5 -7 10 -4 6 3 10 8 10 11 0 2 -4 4 -10 4 -5 0 -10
-5 -10 -11z"/>
<path d="M1270 1730 c0 -5 5 -10 10 -10 6 0 10 5 10 10 0 6 -4 10 -10 10 -5 0
-10 -4 -10 -10z"/>
<path d="M2016 2192 c-3 -6 -1 -14 5 -17 14 -9 20 -2 10 14 -6 8 -11 9 -15 3z"/>
<path d="M450 1749 c0 -5 5 -7 10 -4 6 3 10 8 10 11 0 2 -4 4 -10 4 -5 0 -10
-5 -10 -11z"/>
<path d="M2114 1732 c0 -10 5 -19 12 -19 6 0 9 9 6 19 -2 10 -7 18 -11 18 -4
0 -7 -8 -7 -18z"/>
<path d="M450 1710 c0 -5 5 -10 11 -10 5 0 7 5 4 10 -3 6 -8 10 -11 10 -2 0
-4 -4 -4 -10z"/>
<path d="M456 1606 c6 -15 4 -17 -6 -11 -9 6 -11 4 -5 -4 5 -9 10 -10 18 -2 8
8 7 14 -2 24 -10 10 -11 8 -5 -7z"/>
<path d="M456 1526 c6 -15 4 -17 -6 -11 -9 6 -11 4 -5 -4 5 -9 10 -10 18 -2 8
8 7 14 -2 24 -10 10 -11 8 -5 -7z"/>
<path d="M2110 1530 c0 -6 7 -10 15 -10 8 0 15 2 15 4 0 2 -7 6 -15 10 -8 3
-15 1 -15 -4z"/>
<path d="M450 1469 c0 -5 5 -7 10 -4 6 3 10 8 10 11 0 2 -4 4 -10 4 -5 0 -10
-5 -10 -11z"/>
<path d="M450 1349 c0 -5 5 -7 10 -4 6 3 10 8 10 11 0 2 -4 4 -10 4 -5 0 -10
-5 -10 -11z"/>
<path d="M450 1229 c0 -5 5 -7 10 -4 6 3 10 8 10 11 0 2 -4 4 -10 4 -5 0 -10
-5 -10 -11z"/>
<path d="M456 1126 c6 -15 4 -17 -6 -11 -9 6 -11 4 -5 -4 5 -9 10 -10 18 -2 8
8 7 14 -2 24 -10 10 -11 8 -5 -7z"/>
<path d="M2110 1130 c0 -6 7 -10 15 -10 8 0 15 2 15 4 0 2 -7 6 -15 10 -8 3
-15 1 -15 -4z"/>
<path d="M456 1046 c6 -15 4 -17 -6 -11 -9 6 -11 4 -5 -4 5 -9 10 -10 18 -2 8
8 7 14 -2 24 -10 10 -11 8 -5 -7z"/>
<path d="M450 949 c0 -5 5 -7 10 -4 6 3 10 8 10 11 0 2 -4 4 -10 4 -5 0 -10
-5 -10 -11z"/>
<path d="M2110 890 c0 -6 7 -10 15 -10 8 0 15 2 15 4 0 2 -7 6 -15 10 -8 3
-15 1 -15 -4z"/>
<path d="M450 789 c0 -5 5 -7 10 -4 6 3 10 8 10 11 0 2 -4 4 -10 4 -5 0 -10
-5 -10 -11z"/>
<path d="M2235 760 c3 -5 8 -10 11 -10 2 0 4 5 4 10 0 6 -5 10 -11 10 -5 0 -7
-4 -4 -10z"/>
<path d="M450 750 c0 -5 5 -10 11 -10 5 0 7 5 4 10 -3 6 -8 10 -11 10 -2 0 -4
-4 -4 -10z"/>
<path d="M450 669 c0 -5 5 -7 10 -4 6 3 10 8 10 11 0 2 -4 4 -10 4 -5 0 -10
-5 -10 -11z"/>
<path d="M450 549 c0 -5 5 -7 10 -4 6 3 10 8 10 11 0 2 -4 4 -10 4 -5 0 -10
-5 -10 -11z"/>
<path d="M1156 418 c3 -5 10 -6 15 -3 13 9 11 12 -6 12 -8 0 -12 -4 -9 -9z"/>
<path d="M1059 293 c-4 -44 -2 -76 5 -80 5 -4 6 0 1 7 -6 9 -4 11 5 5 11 -7
10 -10 -2 -19 -18 -14 -16 -71 3 -71 8 0 14 -7 14 -15 0 -8 10 -16 23 -18 12
-2 22 -9 22 -17 0 -8 17 -16 40 -20 22 -4 43 -12 46 -17 4 -6 2 -8 -4 -4 -6 3
-14 2 -17 -4 -4 -6 -3 -9 2 -8 18 5 74 -12 68 -22 -4 -6 8 -10 29 -10 21 0 35
5 33 11 -2 10 18 18 51 21 7 1 11 7 8 15 -3 7 -1 14 4 14 6 1 15 3 20 4 6 1
17 3 26 4 14 1 14 3 0 16 -8 8 -22 15 -30 15 -9 0 -16 7 -16 15 0 8 -5 15 -11
15 -7 0 -17 7 -23 15 -6 9 -22 17 -35 18 -14 1 -26 9 -29 19 -3 13 -14 18 -41
18 -24 0 -32 3 -22 9 10 6 3 12 -25 21 -22 7 -43 17 -49 22 -6 6 -3 7 10 3 16
-6 17 -5 5 4 -8 6 -26 11 -39 11 -16 0 -21 4 -17 15 8 22 -3 18 -25 -7 -10
-13 -18 -17 -19 -10 0 6 5 12 10 12 6 0 10 5 10 10 0 11 -30 14 -31 3z m291
-147 c0 -2 -7 -7 -16 -10 -8 -3 -12 -2 -9 4 6 10 25 14 25 6z m-195 -56 c3 -5
1 -10 -4 -10 -6 0 -11 5 -11 10 0 6 2 10 4 10 3 0 8 -4 11 -10z"/>
</g>
</svg>
